<svg width="400" height="400" viewBox="0 0 400 400" xmlns="http://www.w3.org/2000/svg">
  <defs>
    <linearGradient id="bg" x1="0%" y1="0%" x2="100%" y2="100%">
      <stop offset="0%" style="stop-color:#0a0a0a"/>
      <stop offset="50%" style="stop-color:#1a1a2e"/>
      <stop offset="100%" style="stop-color:#16213e"/>
    </linearGradient>
    <linearGradient id="ninjaFace" x1="0%" y1="0%" x2="100%" y2="100%">
      <stop offset="0%" style="stop-color:#ff6b35"/>
      <stop offset="50%" style="stop-color:#f7931e"/>
      <stop offset="100%" style="stop-color:#ff4757"/>
    </linearGradient>
    <linearGradient id="shield" x1="0%" y1="0%" x2="100%" y2="100%">
      <stop offset="0%" style="stop-color:#00d4ff"/>
      <stop offset="100%" style="stop-color:#0099cc"/>
    </linearGradient>
    <filter id="glow">
      <feGaussianBlur stdDeviation="3" result="coloredBlur"/>
      <feMerge> 
        <feMergeNode in="coloredBlur"/>
        <feMergeNode in="SourceGraphic"/>
      </feMerge>
    </filter>
    <filter id="shadow">
      <feDropShadow dx="0" dy="4" stdDeviation="8" flood-opacity="0.4"/>
    </filter>
    <filter id="redGlow">
      <feGaussianBlur stdDeviation="2" result="coloredBlur"/>
      <feMerge> 
        <feMergeNode in="coloredBlur"/>
        <feMergeNode in="SourceGraphic"/>
      </feMerge>
    </filter>
  </defs>
  
  <!-- Background circle -->
  <circle cx="200" cy="200" r="190" fill="url(#bg)" stroke="#00d4ff" stroke-width="3" filter="url(#shadow)"/>
  
  <!-- Security shield background -->
  <path d="M 200 120 L 240 140 L 240 180 Q 240 200 200 220 Q 160 200 160 180 L 160 140 Z" fill="url(#shield)" opacity="0.2" filter="url(#glow)"/>
  
  <!-- Ninja face circle -->
  <circle cx="200" cy="170" r="50" fill="url(#ninjaFace)" filter="url(#shadow)"/>
  
  <!-- Ninja mask -->
  <path d="M 150 160 Q 200 155 250 160 L 250 185 Q 200 195 150 185 Z" fill="#0a0a0a"/>
  
  <!-- Eyes with security focus -->
  <circle cx="185" cy="168" r="5" fill="#ff4757" filter="url(#redGlow)">
    <animate attributeName="r" values="5;6;5" dur="3s" repeatCount="indefinite"/>
  </circle>
  <circle cx="215" cy="168" r="5" fill="#ff4757" filter="url(#redGlow)">
    <animate attributeName="r" values="5;6;5" dur="3s" begin="0.5s" repeatCount="indefinite"/>
  </circle>
  
  <!-- Security shield symbol -->
  <path d="M 200 135 L 225 145 L 225 170 Q 225 185 200 195 Q 175 185 175 170 L 175 145 Z" fill="none" stroke="#00d4ff" stroke-width="3" filter="url(#glow)"/>
  <path d="M 190 165 L 198 172 L 215 155" fill="none" stroke="#00d4ff" stroke-width="2" filter="url(#glow)"/>
  
  <!-- Cloud symbols -->
  <g transform="translate(80, 100)">
    <ellipse cx="0" cy="0" rx="12" ry="8" fill="#00d4ff" opacity="0.6"/>
    <ellipse cx="10" cy="-3" rx="10" ry="6" fill="#00d4ff" opacity="0.6"/>
    <ellipse cx="18" cy="2" rx="8" ry="5" fill="#00d4ff" opacity="0.6"/>
    <animateTransform attributeName="transform" type="translate" values="80,100;85,105;80,100" dur="4s" repeatCount="indefinite"/>
  </g>
  
  <g transform="translate(300, 120)">
    <ellipse cx="0" cy="0" rx="10" ry="6" fill="#00d4ff" opacity="0.4"/>
    <ellipse cx="8" cy="-2" rx="8" ry="5" fill="#00d4ff" opacity="0.4"/>
    <ellipse cx="14" cy="1" rx="6" ry="4" fill="#00d4ff" opacity="0.4"/>
    <animateTransform attributeName="transform" type="translate" values="300,120;295,115;300,120" dur="5s" repeatCount="indefinite"/>
  </g>
  
  <!-- Automation gears -->
  <g transform="translate(320, 280)">
    <circle cx="0" cy="0" r="15" fill="none" stroke="#ff6b35" stroke-width="2" opacity="0.7"/>
    <path d="M -10,-10 L -5,-15 L 5,-15 L 10,-10 L 15,-5 L 15,5 L 10,10 L 5,15 L -5,15 L -10,10 L -15,5 L -15,-5 Z" fill="none" stroke="#ff6b35" stroke-width="1.5" opacity="0.7"/>
    <animateTransform attributeName="transform" type="rotate" values="0 320 280;360 320 280" dur="8s" repeatCount="indefinite"/>
  </g>
  
  <g transform="translate(80, 280)">
    <circle cx="0" cy="0" r="12" fill="none" stroke="#ff6b35" stroke-width="2" opacity="0.5"/>
    <path d="M -8,-8 L -4,-12 L 4,-12 L 8,-8 L 12,-4 L 12,4 L 8,8 L 4,12 L -4,12 L -8,8 L -12,4 L -12,-4 Z" fill="none" stroke="#ff6b35" stroke-width="1.5" opacity="0.5"/>
    <animateTransform attributeName="transform" type="rotate" values="360 80 280;0 80 280" dur="6s" repeatCount="indefinite"/>
  </g>
  
  <!-- Code brackets with security theme -->
  <text x="90" y="220" font-family="monospace" font-size="40" font-weight="bold" fill="#00d4ff" filter="url(#glow)">&lt;/</text>
  <text x="270" y="220" font-family="monospace" font-size="40" font-weight="bold" fill="#00d4ff" filter="url(#glow)">/&gt;</text>
  
  <!-- Security lock symbols in brackets -->
  <rect x="105" y="202" width="8" height="10" fill="none" stroke="#ff6b35" stroke-width="1.5" opacity="0.8"/>
  <path d="M 107 202 Q 109 198 111 202" fill="none" stroke="#ff6b35" stroke-width="1.5" opacity="0.8"/>
  
  <rect x="287" y="202" width="8" height="10" fill="none" stroke="#ff6b35" stroke-width="1.5" opacity="0.8"/>
  <path d="M 289 202 Q 291 198 293 202" fill="none" stroke="#ff6b35" stroke-width="1.5" opacity="0.8"/>
  
  <!-- Title -->
  <text x="200" y="265" font-family="Arial, sans-serif" font-size="24" font-weight="bold" fill="white" text-anchor="middle" filter="url(#glow)">SECURITY</text>
  <text x="200" y="290" font-family="Arial, sans-serif" font-size="24" font-weight="bold" fill="white" text-anchor="middle" filter="url(#glow)">NINJA</text>
  
  <!-- Professional subtitle -->
  <text x="200" y="315" font-family="Arial, sans-serif" font-size="11" fill="#00d4ff" text-anchor="middle" opacity="0.9">SECURITY ENGINEER</text>
  <text x="200" y="330" font-family="Arial, sans-serif" font-size="11" fill="#ff6b35" text-anchor="middle" opacity="0.9">CLOUD SECURITY • AUTOMATION</text>
  
  <!-- Binary code stream -->
  <g opacity="0.3">
    <text x="60" y="350" font-family="monospace" font-size="8" fill="#00d4ff">1010110</text>
    <text x="340" y="60" font-family="monospace" font-size="8" fill="#00d4ff">0110101</text>
    <text x="50" y="80" font-family="monospace" font-size="8" fill="#ff6b35">1100101</text>
    <text x="320" y="340" font-family="monospace" font-size="8" fill="#ff6b35">0101110</text>
  </g>
  
  <!-- Scanning lines effect -->
  <line x1="0" y1="0" x2="400" y2="0" stroke="#00d4ff" stroke-width="1" opacity="0.3">
    <animateTransform attributeName="transform" type="translate" values="0,50;0,350;0,50" dur="3s" repeatCount="indefinite"/>
  </line>
  
  <!-- Network nodes -->
  <circle cx="120" cy="320" r="2" fill="#00d4ff" opacity="0.6">
    <animate attributeName="opacity" values="0.6;1;0.6" dur="2s" repeatCount="indefinite"/>
  </circle>
  <circle cx="280" cy="320" r="2" fill="#00d4ff" opacity="0.6">
    <animate attributeName="opacity" values="0.6;1;0.6" dur="2s" begin="0.7s" repeatCount="indefinite"/>
  </circle>
  <line x1="120" y1="320" x2="280" y2="320" stroke="#00d4ff" stroke-width="1" opacity="0.3" stroke-dasharray="5,5">
    <animate attributeName="stroke-dashoffset" values="0;10;0" dur="2s" repeatCount="indefinite"/>
  </line>
  
  <!-- Animated outer ring -->
  <circle cx="200" cy="200" r="195" fill="none" stroke="#ff6b35" stroke-width="1" opacity="0.4" stroke-dasharray="15,10">
    <animateTransform attributeName="transform" type="rotate" values="0 200 200;360 200 200" dur="15s" repeatCount="indefinite"/>
  </circle>
</svg>